<?xml version="1.0" standalone="no"?>
<!DOCTYPE svg PUBLIC "-//W3C//DTD SVG 20010904//EN"
 "http://www.w3.org/TR/2001/REC-SVG-20010904/DTD/svg10.dtd">
<svg version="1.0" xmlns="http://www.w3.org/2000/svg"
 width="720.000000pt" height="480.000000pt" viewBox="0 0 720.000000 480.000000"
 preserveAspectRatio="xMidYMid meet">

<g transform="translate(0.000000,480.000000) scale(0.100000,-0.100000)"
fill="#000000" stroke="none">
<path d="M3851 3338 c23 -65 24 -111 4 -169 -20 -59 -65 -112 -123 -147 -62
-36 -158 -38 -214 -5 l-38 22 0 -139 0 -139 -57 -6 c-69 -8 -93 -14 -93 -23 0
-4 58 -65 129 -136 l129 -128 64 7 c158 18 280 77 393 190 84 83 135 166 170
274 l17 53 -193 196 c-107 108 -197 198 -200 200 -3 1 2 -21 12 -50z"/>
<path d="M3535 3338 c-35 -19 -55 -52 -55 -91 0 -88 112 -132 174 -68 30 32
36 72 17 119 -19 46 -88 67 -136 40z"/>
</g>
</svg>
